<svg width="536" height="147" viewBox="0 0 536 147" fill="none" xmlns="http://www.w3.org/2000/svg">
<path d="M175.793 94.0567C181.76 99.0479 189.125 102.36 196.932 102.36C205.649 102.36 213.014 97.5299 213.014 90.2615C213.014 72.5735 172.74 82.257 172.74 58.6807C172.74 46.145 184.673 38.5776 196.466 38.5776C205.952 38.5776 213.76 41.7518 218.98 45.225L214.389 52.3324C208.422 48.5602 204.134 46.7431 196.932 46.7431C189.591 46.7431 181.457 50.5153 181.457 58.5197C181.457 73.7926 221.731 65.6271 221.731 89.8014C221.731 102.636 210.707 110.503 197.538 110.503C185.908 110.503 176.562 106.27 170.433 100.681L175.793 94.0567Z" fill="#FFFA0C"/>
<path d="M297.08 109.008V98.887C291.883 105.833 282.84 110.526 271.979 110.526C265.383 110.526 258.042 108.869 251.143 104.016C241.96 97.6679 236.297 86.9493 236.297 74.5516C236.297 63.074 241.354 52.9304 249.302 46.2831C255.128 41.5908 263.076 38.5776 271.513 38.5776C281.628 38.5776 290.811 42.6489 297.08 49.6182V40.0957H305.494V109.008H297.08ZM296.754 60.6588C293.701 55.5296 284.495 46.7661 271.653 46.7661C265.826 46.7661 259.72 48.7212 254.802 52.6544C248.672 57.6457 245.013 65.6501 245.013 74.5746C245.013 84.0971 249.302 92.5616 256.037 97.2309C260.489 100.244 265.826 102.36 271.816 102.36C282.071 102.36 291.253 96.6098 296.777 87.2483V60.6588H296.754Z" fill="#FFFA0C"/>
<path d="M339.941 49.4572C344.999 42.9479 353.879 38.5776 363.528 38.5776C375.157 38.5776 384.806 44.328 389.701 53.2294C394.595 46.2831 403.172 38.5776 417.109 38.5776C428.599 38.5776 438.248 44.3279 443.282 53.0914C445.893 57.7837 447.408 63.373 447.408 72.5965V109.007H438.691V73.6546C438.691 63.994 437.153 59.4398 434.706 55.8286C431.023 50.3773 424.754 46.7661 417.086 46.7661C405.899 46.7661 397.322 54.4715 393.057 62.775C393.523 65.4891 393.826 68.8243 393.826 72.5965V109.007H385.109V73.6546C385.109 63.994 383.571 59.4398 381.124 55.8286C377.442 50.3773 371.172 46.7661 363.504 46.7661C354.018 46.7661 344.812 52.5164 340.221 61.1189V109.007H331.504V40.0957H339.918V49.4572H339.941Z" fill="#FFFA0C"/>
<path d="M526.603 109.008V98.887C521.406 105.833 512.363 110.526 501.502 110.526C494.906 110.526 487.565 108.869 480.666 104.016C471.483 97.6679 465.82 86.9493 465.82 74.5516C465.82 63.074 470.877 52.9304 478.825 46.2831C484.651 41.5908 492.599 38.5776 501.036 38.5776C511.151 38.5776 520.334 42.6489 526.603 49.6182V40.0957H535.017V109.008H526.603ZM526.3 60.6588C523.247 55.5296 514.041 46.7661 501.199 46.7661C495.372 46.7661 489.266 48.7212 484.348 52.6544C478.219 57.6457 474.56 65.6501 474.56 74.5746C474.56 84.0971 478.848 92.5616 485.584 97.2309C490.035 100.244 495.372 102.36 501.362 102.36C511.617 102.36 520.8 96.6098 526.324 87.2483V60.6588H526.3Z" fill="#FFFA0C"/>
<path d="M137.111 42.0165C132.13 32.3707 124.851 23.8266 116.071 17.3062L111.158 23.7817C118.96 29.5601 125.42 37.1599 129.832 45.7039C134.472 54.6752 136.815 64.366 136.815 74.5064C136.815 82.0162 135.496 89.3461 132.926 96.3387C130.424 103.084 126.807 109.312 122.144 114.888C112.796 126.063 99.7854 133.798 85.5012 136.653C81.2933 137.485 76.9716 137.912 72.65 137.912C69.6021 137.912 66.5087 137.688 63.5063 137.283C63.2561 137.238 63.0968 137.058 63.0968 136.833V34.0345H54.9084V136.833C54.9084 141.06 58.1156 144.703 62.3462 145.287C65.7353 145.759 69.1926 146.007 72.65 146.007C77.5175 146.007 82.385 145.535 87.1161 144.568C103.22 141.33 117.891 132.629 128.422 120.015C133.676 113.742 137.748 106.704 140.568 99.1043C143.48 91.2348 144.958 82.9605 144.958 74.4839C144.981 63.0619 142.32 52.1345 137.111 42.0165Z" fill="#FFFA0C"/>
<path d="M15.4904 103.309C10.8503 94.3374 8.50748 84.6467 8.50748 74.5062C8.50748 66.9964 9.82672 59.6665 12.397 52.6739C14.899 45.9285 18.5155 39.7004 23.1784 34.1242C32.5268 22.9495 45.5372 15.2149 59.8214 12.3594C64.0066 11.5274 68.3282 11.1002 72.6499 11.1002C75.6978 11.1002 78.7912 11.3251 81.7936 11.7298C82.0438 11.7748 82.203 11.9546 82.203 12.1795V114.978H90.3914V12.1795C90.3914 7.95242 87.1843 4.30995 82.9536 3.72536C79.5645 3.25319 76.0845 3.00586 72.6499 3.00586C67.7823 3.00586 62.9148 3.47803 58.1837 4.44486C42.0799 7.66013 27.409 16.3841 16.8778 28.9753C11.6236 35.2485 7.55217 42.2861 4.73173 49.8858C1.79755 57.7778 0.319092 66.0521 0.319092 74.5062C0.319092 85.9508 2.98032 96.8782 8.18905 106.996C13.1703 116.642 20.4489 125.186 29.2287 131.706L34.1417 125.231C26.3627 119.452 19.903 111.853 15.4904 103.309Z" fill="#FFFA0C"/>
</svg>
